<svg width="156" height="37" viewBox="0 0 156 37" fill="none" xmlns="http://www.w3.org/2000/svg">
<path d="M17.875 12.9844L24.8594 0.5625C26.2031 0.625 27.4688 0.71875 28.6562 0.84375C29.8438 0.953125 30.8984 1.07031 31.8203 1.19531C32.8828 1.33594 33.875 1.48437 34.7969 1.64062V7.59375C34.4844 7.48438 34.0625 7.36719 33.5312 7.24219C33.0156 7.11719 32.4375 6.99219 31.7969 6.86719C31.1562 6.72656 30.4844 6.59375 29.7812 6.46875C29.0781 6.34375 28.3906 6.21875 27.7188 6.09375L20.8281 18.3281L27.7188 30.5625C28.3906 30.4531 29.0781 30.3359 29.7812 30.2109C30.4844 30.0703 31.1562 29.9297 31.7969 29.7891C32.4375 29.6484 33.0156 29.5156 33.5312 29.3906C34.0625 29.2656 34.4844 29.1562 34.7969 29.0625V35.0156C33.875 35.1719 32.8828 35.3203 31.8203 35.4609C30.8984 35.5859 29.8438 35.7109 28.6562 35.8359C27.4688 35.9453 26.2031 36.0312 24.8594 36.0938L17.875 23.6719L10.8438 36.0938C9.5 36.0312 8.22656 35.9453 7.02344 35.8359C5.83594 35.7109 4.78906 35.5859 3.88281 35.4609C2.82031 35.3203 1.84375 35.1719 0.953125 35.0156V29.0625C1.23438 29.1562 1.63281 29.2656 2.14844 29.3906C2.66406 29.5156 3.24219 29.6484 3.88281 29.7891C4.52344 29.9297 5.19531 30.0703 5.89844 30.2109C6.61719 30.3359 7.3125 30.4531 7.98438 30.5625L14.8281 18.3281L7.98438 6.09375C7.3125 6.21875 6.61719 6.34375 5.89844 6.46875C5.19531 6.59375 4.52344 6.72656 3.88281 6.86719C3.24219 6.99219 2.66406 7.11719 2.14844 7.24219C1.63281 7.36719 1.23438 7.48438 0.953125 7.59375V1.64062C1.84375 1.48437 2.82031 1.33594 3.88281 1.19531C4.78906 1.07031 5.83594 0.953125 7.02344 0.84375C8.22656 0.71875 9.5 0.625 10.8438 0.5625L17.875 12.9844ZM55.8438 9.28125C57.7031 9.28125 59.5156 9.39844 61.2812 9.63281C63.0469 9.85156 64.6328 10.2344 66.0391 10.7812C67.4453 11.3125 68.6016 12.0391 69.5078 12.9609C70.4141 13.8828 70.9531 15.0312 71.125 16.4062L65.6875 17.9062C65.6875 17.0938 65.4062 16.4219 64.8438 15.8906C64.2969 15.3438 63.5625 14.9219 62.6406 14.625C61.7344 14.3125 60.6875 14.0938 59.5 13.9688C58.3125 13.8438 57.0938 13.7812 55.8438 13.7812C54.6406 13.7812 53.4453 13.8438 52.2578 13.9688C51.0859 14.0781 50.0312 14.2891 49.0938 14.6016C48.1719 14.8984 47.4219 15.3125 46.8438 15.8438C46.2812 16.375 46 17.0625 46 17.9062V20.7656H71.125V28.875C71.125 29.7969 70.9219 30.6172 70.5156 31.3359C70.1094 32.0391 69.5469 32.6562 68.8281 33.1875C68.1094 33.7031 67.2578 34.1484 66.2734 34.5234C65.3047 34.8828 64.25 35.1719 63.1094 35.3906C61.9844 35.6094 60.7969 35.7656 59.5469 35.8594C58.3125 35.9531 57.0781 36 55.8438 36C53.9531 36 52.125 35.8906 50.3594 35.6719C48.5938 35.4375 47.0078 35.0547 45.6016 34.5234C44.1953 33.9766 43.0391 33.25 42.1328 32.3438C41.2422 31.4219 40.7188 30.2656 40.5625 28.875L46 27.375C46 28.2344 46.2812 28.9297 46.8438 29.4609C47.4219 29.9922 48.1719 30.4062 49.0938 30.7031C50.0312 31 51.0859 31.2031 52.2578 31.3125C53.4453 31.4062 54.6406 31.4531 55.8438 31.4531C57.0938 31.4531 58.3125 31.3984 59.5 31.2891C60.6875 31.1641 61.7344 30.9531 62.6406 30.6562C63.5625 30.3438 64.2969 29.9297 64.8438 29.4141C65.4062 28.8828 65.6875 28.2031 65.6875 27.375V24.5156H40.5625V16.4062C40.5625 15.4844 40.7656 14.6719 41.1719 13.9688C41.5781 13.25 42.1328 12.6328 42.8359 12.1172C43.5547 11.5859 44.3984 11.1406 45.3672 10.7812C46.3359 10.4062 47.3828 10.1094 48.5078 9.89062C49.6484 9.67188 50.8359 9.51562 52.0703 9.42188C53.3203 9.32812 54.5781 9.28125 55.8438 9.28125ZM85.5156 8.95312H91.4688V12.8906H85.5156V36H79.9375V12.8906H75.5312V8.95312H79.9375V0.796875H85.5156V8.95312ZM117.766 9.28125C117.766 10.9062 117.711 12.6016 117.602 14.3672C117.492 16.1172 117.281 17.9219 116.969 19.7812H111.297C111.438 19.25 111.57 18.6719 111.695 18.0469C111.789 17.5156 111.875 16.8984 111.953 16.1953C112.047 15.4766 112.094 14.7188 112.094 13.9219C110.719 13.9531 109.578 14.0859 108.672 14.3203C107.781 14.5391 107.039 14.8047 106.445 15.1172C105.852 15.4141 105.367 15.7188 104.992 16.0312C104.617 16.3438 104.281 16.5938 103.984 16.7812V36H97.9844V16.6406C97.9219 16.1406 97.7734 15.7188 97.5391 15.375C97.3203 15.0312 97.0859 14.75 96.8359 14.5312C96.5547 14.2656 96.2344 14.0469 95.875 13.875L98.3594 9.28125C98.9375 9.48438 99.5078 9.75781 100.07 10.1016C100.555 10.3984 101.062 10.7812 101.594 11.25C102.141 11.7031 102.625 12.2656 103.047 12.9375C103.844 12.3906 104.578 11.9297 105.25 11.5547C105.922 11.1641 106.57 10.8359 107.195 10.5703C107.836 10.3047 108.492 10.1016 109.164 9.96094C109.852 9.80469 110.602 9.67969 111.414 9.58594C112.242 9.49219 113.164 9.42969 114.18 9.39844C115.211 9.35156 116.406 9.3125 117.766 9.28125ZM150.25 26.4375C149.859 26.0938 149.375 25.7578 148.797 25.4297C148.219 25.1016 147.508 24.8125 146.664 24.5625C145.82 24.2969 144.812 24.0859 143.641 23.9297C142.484 23.7578 141.125 23.6719 139.562 23.6719C138.172 23.6719 136.852 23.7031 135.602 23.7656C134.367 23.8125 133.281 23.9688 132.344 24.2344C131.406 24.4844 130.664 24.8906 130.117 25.4531C129.57 26.0156 129.297 26.7969 129.297 27.7969V30.7969C130.672 31.0156 132.188 31.1953 133.844 31.3359C135.5 31.4766 137.344 31.5469 139.375 31.5469C141 31.5469 142.727 31.4922 144.555 31.3828C146.398 31.2578 148.297 31.0156 150.25 30.6562V26.4375ZM139.703 9.28125C140.484 9.28125 141.43 9.32031 142.539 9.39844C143.648 9.47656 144.805 9.61719 146.008 9.82031C147.211 10.0078 148.398 10.2734 149.57 10.6172C150.758 10.9453 151.82 11.3828 152.758 11.9297C153.711 12.4609 154.477 13.1016 155.055 13.8516C155.633 14.6016 155.922 15.4844 155.922 16.5V34.6406C154.609 34.9062 153.125 35.1328 151.469 35.3203C150.047 35.4922 148.352 35.6484 146.383 35.7891C144.414 35.9297 142.219 36 139.797 36C137.391 36 134.828 35.8984 132.109 35.6953C129.406 35.4922 126.578 35.1406 123.625 34.6406V26.2031C123.625 25.2969 123.836 24.5078 124.258 23.8359C124.695 23.1484 125.289 22.5625 126.039 22.0781C126.789 21.5938 127.672 21.1953 128.688 20.8828C129.703 20.5703 130.797 20.3203 131.969 20.1328C133.141 19.9453 134.359 19.8203 135.625 19.7578C136.891 19.6797 138.156 19.6406 139.422 19.6406C141.344 19.6406 142.977 19.7656 144.32 20.0156C145.68 20.25 146.805 20.5078 147.695 20.7891C148.727 21.1328 149.578 21.5156 150.25 21.9375V18.1406C150.25 17.5 150.094 16.9531 149.781 16.5C149.469 16.0312 149.047 15.6406 148.516 15.3281C147.984 15 147.375 14.7422 146.688 14.5547C146 14.3516 145.281 14.1953 144.531 14.0859C143.781 13.9766 143.016 13.9062 142.234 13.875C141.469 13.8438 140.75 13.8281 140.078 13.8281C139.375 13.8281 138.625 13.8516 137.828 13.8984C137.031 13.9297 136.234 14 135.438 14.1094C134.656 14.2188 133.898 14.375 133.164 14.5781C132.445 14.7656 131.805 15.0234 131.242 15.3516C130.68 15.6797 130.227 16.0781 129.883 16.5469C129.555 17 129.391 17.5469 129.391 18.1875L123.578 16.6875C123.578 15.6406 123.836 14.7344 124.352 13.9688C124.867 13.1875 125.547 12.5234 126.391 11.9766C127.25 11.4297 128.234 10.9844 129.344 10.6406C130.453 10.2812 131.602 10.0078 132.789 9.82031C133.992 9.61719 135.188 9.47656 136.375 9.39844C137.562 9.32031 138.672 9.28125 139.703 9.28125Z" fill="#F47322"/>
</svg>
